<svg xmlns="http://www.w3.org/2000/svg" xmlns:xlink="http://www.w3.org/1999/xlink" fill="none" version="1.1" width="14.839061737060547" height="15.201562881469727" viewBox="0 0 14.839061737060547 15.201562881469727"><g><path d="M5.46875,7.3578129L5.4484377,7.3578129L5.4484377,7.3875008L5.46875,7.3578129ZM9.3984375,7.3578129L9.4250002,7.3578129L9.3984375,7.3187504L9.3984375,7.3578129ZM11.46875,10.873438L11.46875,10.793751L11.415625,10.793751L11.46875,10.873438ZM0.9375,14.015625L0.9375,0.93749976L11.498438,0.93749976L11.498438,3.815625L12.435938,3.815625L12.435938,0.46875C12.435938,0.20937502,12.226562,0,11.967188,0L0.46875,0C0.20937502,0,0,0.20937502,0,0.46875L0,14.484375C0,14.74375,0.20937502,14.953125,0.46875,14.953125L7.8140621,14.953125L6.6578121,14.015625L0.9375,14.015625ZM12.982813,5.3562498C12.448438,5.1609373,11.923438,4.9281254,11.418751,4.6625004L9.7156258,3.7656252L7.9203129,4.7062502C7.4156256,4.9703131,6.8875003,5.203125,6.351563,5.3968754L4.5875006,6.0359383L4.5875006,7.8031254C4.5875006,8.9312506,4.8578129,10.059375,5.367188,11.065625C5.8781257,12.071876,6.6281252,12.954688,7.5390625,13.620313L9.6999998,15.201563L11.879687,13.614063C12.792188,12.950001,13.54375,12.06875,14.05625,11.062501C14.568749,10.056252,14.839062,8.9296885,14.839062,7.8015633L14.839062,6.0359383L12.982813,5.3562498ZM13.903126,7.8015623C13.903126,9.4343748,13.25625,10.998437,12.137501,12.154687L11.096876,11.410937C11.198439,11.33125,11.295314,11.242188,11.385939,11.14375C11.850001,10.6375,12.085938,9.9437504,12.085938,9.0843754C12.085938,8.2890625,11.856251,7.6343756,11.403126,7.1359377C10.948439,6.6359377,10.340626,6.3828125,9.5968761,6.3828125C8.8000011,6.3828125,8.157814,6.6421871,7.689064,7.1515627C7.2218766,7.6609373,6.985939,8.3515625,6.985939,9.2078123C6.985939,10.003125,7.2187514,10.659375,7.6765642,11.15625C8.1359396,11.654688,8.7531271,11.907812,9.5125017,11.907812C9.8093767,11.907812,10.089065,11.870312,10.343752,11.795312L11.328127,12.526562L11.743752,12.526562C11.610939,12.640624,11.473439,12.751562,11.331251,12.854687L9.703125,14.039062L8.09375,12.8625C6.4859376,11.685938,5.5250001,9.7937498,5.5250001,7.8015623L5.5250001,6.6921873L6.671875,6.2765627C7.2468748,6.0687504,7.8140621,5.8187504,8.3546877,5.5343752L9.7140627,4.8218746L10.98125,5.4906244C11.521874,5.7749996,12.085938,6.0265617,12.659375,6.2359371L13.901563,6.6906252L13.901563,7.8015623L13.903126,7.8015623ZM10.782812,10.657813C10.478125,11.007813,10.049999,11.184376,9.5109367,11.184376C9.0109367,11.184376,8.5999994,11.000001,8.2906246,10.634376C7.9781246,10.267188,7.8203125,9.7687502,7.8203125,9.1546879C7.8203125,8.5453129,7.9828129,8.046875,8.3031254,7.6734381C8.6203127,7.3031254,9.0421877,7.1156254,9.5562506,7.1156254C10.078126,7.1156254,10.495313,7.2937498,10.793751,7.6437502C11.095313,7.9968748,11.246876,8.5093756,11.246876,9.1656256C11.245314,9.8031254,11.089064,10.304688,10.782812,10.657813ZM8.4640627,2.9859374C8.4640627,2.7265623,8.2546873,2.5171874,7.9953127,2.5171874L2.9578125,2.5171874C2.6984375,2.5171874,2.4890625,2.7265623,2.4890625,2.9859374C2.4890625,3.2453125,2.6984375,3.4546874,2.9578125,3.4546874L7.9953127,3.4546874C8.2531252,3.4546874,8.4640627,3.2453125,8.4640627,2.9859374ZM2.9578125,6.5890627L3.359375,6.5890627C3.6187501,6.5890627,3.828125,6.3796873,3.828125,6.1203127C3.828125,5.8609371,3.6187501,5.6515627,3.359375,5.6515627L2.9578125,5.6515627C2.6984375,5.6515627,2.4890625,5.8609371,2.4890625,6.1203127C2.4890625,6.3781252,2.6984375,6.5890627,2.9578125,6.5890627ZM2.4890625,9.3703127C2.4890625,9.6296873,2.6984375,9.8390627,2.9578125,9.8390627L3.359375,9.8390627C3.6187501,9.8390627,3.828125,9.6296873,3.828125,9.3703127C3.828125,9.1109381,3.6187501,8.9015627,3.359375,8.9015627L2.9578125,8.9015627C2.6984375,8.9015627,2.4890625,9.1109381,2.4890625,9.3703127ZM2.4890625,11.867188C2.4890625,12.126562,2.6984375,12.335938,2.9578125,12.335938L4.4093752,12.335938C4.6687503,12.335938,4.8781252,12.126562,4.8781252,11.867188C4.8781252,11.607813,4.6687503,11.398438,4.4093752,11.398438L2.9578128,11.398438C2.6984377,11.398438,2.4890628,11.607813,2.4890625,11.867188Z" fill="#27D185" fill-opacity="1" style="mix-blend-mode:passthrough"/></g></svg>