<svg xmlns="http://www.w3.org/2000/svg" xmlns:xlink="http://www.w3.org/1999/xlink" fill="none" version="1.1" width="16" height="16" viewBox="0 0 16 16"><defs><clipPath id="master_svg0_128_024502"><rect x="0" y="0" width="16" height="16" rx="0"/></clipPath></defs><g clip-path="url(#master_svg0_128_024502)"><g><path d="M4.799993995195313,4.9197788125C4.526288986195312,5.2392292125,4.473557949195312,5.6927152125,4.666660305195313,6.0664453125L4.833326815195313,6.3597789125C5.041269775195312,6.7327146125,5.457177165195312,6.9393439125,5.8799934251953125,6.8797788125L6.179993625195312,6.8331122125C6.402346125195312,6.8091287125,6.613017525195312,6.9377203125,6.693326925195313,7.1464457125L6.7866602251953125,7.3397789125C6.943850025195312,7.7196221125,7.322729125195313,7.9597568125,7.733326925195312,7.9397788125L8.079993725195312,7.9397788125C8.483999725195313,7.9732504125,8.866448925195312,7.7528109125,9.039993725195313,7.3864455125L9.159993625195312,7.1331119125C9.245998825195311,6.9407925125,9.453159825195312,6.8330688125,9.659993625195312,6.8731117125L9.973327125195311,6.9331117125C10.391729825195313,7.0061631125,10.812218225195313,6.8157525125,11.033326625195311,6.4531116125L11.206659825195313,6.1664448125C11.427217925195311,5.8057380125,11.400643825195313,5.3460026125,11.139993225195312,5.0131116125L10.953326725195312,4.7664451125C10.819663525195313,4.598704812499999,10.819663525195313,4.3608518125,10.953326725195312,4.1931119125L11.146660325195313,3.9531116125C11.418922925195313,3.6309786125,11.461500625195313,3.1732702125,11.253326925195314,2.8064451125L11.079993725195312,2.4931117125C10.877032725195313,2.1555852125,10.498874225195312,1.9639156125,10.106660325195312,1.9997786125L9.779993525195312,1.9997786125C9.589197625195313,2.0086614125,9.412249125195313,1.9003795125,9.333326825195313,1.7264453125L9.179994125195313,1.3331120025C9.037580925195313,0.9237827025,8.665557425195313,0.6382150655,8.233327425195313,0.6064453125L7.893327225195312,0.6064453125C7.451155225195313,0.6277967095,7.066135425195313,0.9152427925,6.919993925195312,1.3331120025L6.793327325195312,1.6664454125C6.7105188251953125,1.8678237125,6.502532925195313,1.9882368125,6.286660625195313,1.9597787125L5.999993825195313,1.8931119125C5.5847916251953125,1.8275531125,5.1718916851953125,2.0234161125,4.959993835195313,2.3864454125L4.753326895195313,2.6664452125C4.537736416195313,3.0251684125,4.561475754195312,3.4788484125,4.813326835195313,3.8131122125L5.0133266451953125,4.0731125125C5.148820875195312,4.2494635125,5.143272875195312,4.496358412499999,4.999993805195312,4.6664452125L4.799993995195313,4.9197788125ZM5.746660725195312,3.8131122125L5.573327525195312,3.5864453125C5.480123995195313,3.4472756125,5.480123995195313,3.2656150125,5.573327525195312,3.1264453125L5.733327425195313,2.8597789125C5.816567425195313,2.7217622125,5.973462625195312,2.6459293125,6.133327025195312,2.6664452125L6.406660525195313,2.6664452125C6.826449425195312,2.7254753125,7.232769925195313,2.4921154125,7.393327225195312,2.0997788125000003L7.506660425195312,1.8064455125C7.569841825195312,1.6424025125,7.718729925195312,1.5268856325,7.893327225195312,1.5064455225L8.193327425195312,1.5064455225C8.366062625195312,1.5240262725,8.512307625195312,1.6415443125,8.566660425195312,1.8064455125L8.679994125195313,2.1464454125000003C8.824711325195313,2.5382405125,9.218353725195312,2.7804823125,9.633327025195314,2.7331118125L9.919993925195312,2.6997785125C10.085865525195313,2.6839247125,10.245424725195313,2.7676277125,10.326660625195313,2.9131122125L10.479994325195314,3.1864452125C10.557948625195312,3.3343701125,10.542312125195313,3.5141964125,10.439994325195313,3.6464453125L10.266661125195313,3.8597789125C9.998936225195312,4.1901235125,9.998936225195312,4.6627679125,10.266661125195313,4.9931121125L10.433328125195313,5.2064452125C10.530313025195312,5.3444424125,10.530313025195312,5.5284481125,10.433328125195313,5.6664452125L10.279994525195313,5.9197788125C10.196092125195314,6.0641971125,10.031290525195313,6.1412816125,9.866661525195312,6.1131120125L9.586661825195312,6.0597787125C9.176675325195312,5.9813027125,8.766999725195312,6.1972132125,8.599995125195314,6.5797787125L8.493328525195313,6.7997784125C8.417774725195311,6.9395590125,8.264400925195313,7.0188904125,8.106662225195313,6.9997783125L7.7933287251953125,6.9997783125C7.629327325195312,7.0142460125,7.474150625195312,6.9232807125,7.406662025195312,6.7731118125L7.333327325195313,6.6264453125C7.2021365251953124,6.2785048125,6.871794225195313,6.0459437125,6.499993825195313,6.0397787125L6.353327225195312,6.0397787125L6.086660825195312,6.0797787125C5.916204925195313,6.1012626125,5.749850725195312,6.0167656125,5.666660825195312,5.8664455125L5.5199942551953125,5.6064453125C5.438457485195313,5.4592628125,5.454276085195312,5.2773442125,5.559994225195313,5.1464453125L5.739994025195313,4.9331121125C5.995390425195312,4.6042962124999995,5.998124625195312,4.1449447125,5.746660725195312,3.8131122125Z" fill="#532AE8" fill-opacity="1" style="mix-blend-mode:passthrough"/></g><g><path d="M7.9533286171875,5.7067057625C8.6897087171875,5.7067057625,9.2866621171875,5.1097519625,9.2866621171875,4.3733723625C9.2866621171875,3.6369926925,8.6897087171875,3.0400390625,7.9533291171875,3.0400390625C7.2169494671875,3.0400390625,6.61999559402466,3.6369926925,6.6199951171875,4.3733723625C6.61999559402466,5.1097519625,7.2169489871875,5.7067057625,7.9533286171875,5.7067057625ZM7.9999952171875,3.5800392625C8.4380483171875,3.5874626625,8.787155117187499,3.9485719225,8.7797727171875,4.3866264625C8.772389417187501,4.8246815625,8.4113130171875,5.1738216625,7.9732580171875,5.1664802625C7.5352025071875,5.1591384625,7.1860284771875005,4.7980949625000004,7.1933283771875,4.3600389625C7.1969127671875,3.9202625725,7.5603466071875,3.5688436025,7.9999952171875,3.5800392625Z" fill="#532AE8" fill-opacity="1" style="mix-blend-mode:passthrough"/></g><g><path d="M14.446671752929687,11.2665596L13.846670752929688,11.2665596L13.846670752929688,9.4265594C13.832208752929688,8.79150963,13.301488752929687,8.290775299,12.666671752929688,8.31322669983L3.3333382529296873,8.31322669983C2.7025201529296874,8.298290253,2.1781702529296876,8.79582691,2.1600048529296876,9.4265604L2.1600048529296876,11.2665606L1.5600048929296875,11.2665606C1.0783951829296874,11.2439098,0.6736732125296875,11.624468799999999,0.6666717529296875,12.1065598L0.6666717529296875,14.559892699999999C0.6775465609296875,15.0302305,1.0697782629296875,15.4015036,1.5400050329296875,15.3865595L3.9200050529296875,15.3865595C4.395375452929688,15.4015532,4.7898306529296875,15.0221539,4.793338752929688,14.5465593L4.793338752929688,12.1065598C4.786063652929688,11.6325951,4.393894952929688,11.255393999999999,3.9200050529296875,11.2665596L3.1400051529296875,11.2665596L3.1400051529296875,9.2665596L7.4866719529296875,9.2665596L7.4866719529296875,11.2665596L6.820005452929688,11.2665596C6.343842052929688,11.2553463,5.947861652929688,11.630485499999999,5.933338652929687,12.1065598L5.933338652929687,14.553226500000001C5.940649052929688,15.025583300000001,6.327606152929688,15.4036102,6.800005452929687,15.3998928L9.193338352929688,15.3998928C9.665773352929687,15.4073439,10.055741352929687,15.0322609,10.066671352929687,14.559892699999999L10.066671352929687,12.1065598C10.055741352929687,11.6341915,9.665773352929687,11.2591076,9.193338352929688,11.2665596L8.526671852929688,11.2665596L8.526671852929688,9.2665596L12.873337752929688,9.2665596L12.873337752929688,11.2665596L12.066671752929688,11.2665596C11.591299752929688,11.2515669,11.196845752929688,11.6309662,11.193338752929687,12.1065598L11.193338752929687,14.553226500000001C11.196930752929687,15.0298138,11.590202752929688,15.411077500000001,12.066671752929688,15.3998928L14.460004752929688,15.3998928C14.933893752929688,15.4110584,15.326062752929687,15.0338583,15.333337752929687,14.559893599999999L15.333337752929687,12.1065598C15.322458752929688,11.6288605,14.924260752929687,11.2516193,14.446671752929687,11.2665596ZM3.7800047529296874,11.999893199999999C3.8978471529296876,11.9961529,3.9963793529296874,12.0887136,4.000004752929687,12.2065601L4.000004752929687,14.4198933C4.000253952929688,14.539448700000001,3.8993113529296877,14.634273499999999,3.7800047529296874,14.6265602L1.6800050529296875,14.6265602C1.5635245429296876,14.626773799999999,1.4670645629296875,14.5361595,1.4600049829296875,14.4198933L1.4600049829296875,12.2265596C1.4520645729296875,12.1008806,1.5541449229296875,11.9957075,1.6800050529296875,11.999893199999999L3.7800047529296874,11.999893199999999ZM9.046671852929688,11.999893199999999C9.163152652929687,11.9996786,9.259613052929687,12.0902929,9.266672152929688,12.2065601L9.266672152929688,14.406559900000001C9.263146352929688,14.5234699,9.163388252929687,14.6141586,9.046671852929688,14.6065598L6.940005752929688,14.6065598C6.825844252929688,14.610301,6.730296152929688,14.520725299999999,6.726672652929688,14.406559900000001L6.726672652929688,12.2065601C6.726612052929688,12.0897665,6.823272752929688,11.996126199999999,6.940005752929688,11.999893199999999L9.046671852929688,11.999893199999999ZM14.526671752929687,14.4132271C14.526920752929687,14.5327826,14.425977752929688,14.627607300000001,14.306670752929687,14.619894L12.206671752929687,14.619894C12.090189752929687,14.6201086,11.993729752929687,14.5294933,11.986671752929688,14.4132271L11.986671752929688,12.2265606C11.990296752929687,12.1087141,12.088827752929687,12.0161533,12.206671752929687,12.0198936L14.306671752929688,12.0198936C14.424514752929687,12.0161533,14.523046752929687,12.1087141,14.526672752929688,12.2265606L14.526671752929687,14.4132271Z" fill="#532AE8" fill-opacity="1" style="mix-blend-mode:passthrough"/></g></g></svg>