<svg xmlns="http://www.w3.org/2000/svg" xmlns:xlink="http://www.w3.org/1999/xlink" fill="none" version="1.1" width="20" height="20" viewBox="0 0 20 20"><defs><clipPath id="master_svg0_298_59972"><rect x="0" y="0" width="20" height="20" rx="0"/></clipPath><linearGradient x1="0.03068186528980732" y1="0.29318034648895264" x2="1.048712481364603" y2="0.9210126727470325" id="master_svg1_15_2513"><stop offset="0%" stop-color="#3D77F8" stop-opacity="1"/><stop offset="100%" stop-color="#293AEE" stop-opacity="1"/></linearGradient></defs><g clip-path="url(#master_svg0_298_59972)"><g><path d="M16.85923290625,17.627417952316286L3.13715640625,17.627417952316286C2.33891528625,17.613236952316285,1.69205661325,16.975527952316284,1.66650390625,16.177570952316284L1.66650390625,8.796933452316285L18.33316990625,8.796933452316285L18.33316990625,16.177570952316284C18.30644990625,16.976296952316282,17.65829190625,17.613864952316284,16.85923290625,17.627417952316286ZM8.22804550625,14.814234952316284L10.03268910625,14.814234952316284C10.05894850625,14.814247952316284,10.08228490625,14.830976952316284,10.09072490625,14.855844952316284L10.43457220625,15.851245952316285C10.51404190625,16.066742952316282,10.71956350625,16.209731952316282,10.94924540625,16.20932695231628C11.00971980625,16.209606952316285,11.06977180625,16.199228952316282,11.12664410625,16.178664952316282C11.40840720625,16.085356952316282,11.56199840625,15.782086952316284,11.47049040625,15.499734952316285L9.68446250625,10.328908652316285C9.60765690625,10.109200752316283,9.40034480625,9.962061652316283,9.16759820625,9.962066452316284C8.93723490625,9.961368752316284,8.731074306250001,10.104937752316285,8.65183020625,10.321243052316284L6.77491380625,15.489879952316285C6.68425460625,15.768784952316285,6.83382180625,16.068892952316283,7.11109450625,16.164428952316285C7.17048840625,16.185735952316286,7.23305890625,16.196844952316283,7.29615780625,16.197283952316283C7.51839970625,16.199684952316282,7.71949670625,16.065911952316284,7.80316590625,15.860004952316284L8.16781810625,14.854750952316284C8.17676160625,14.829928952316283,8.20057630625,14.813612952316284,8.226951106249999,14.814234952316284L8.22804550625,14.814234952316284ZM12.78345390625,9.966446152316284C12.48810690625,9.959713252316284,12.24310190625,10.193447852316284,12.23592990625,10.488785552316283L12.23592990625,15.646469952316284C12.24310190625,15.941809952316284,12.48810690625,16.175544952316287,12.78345390625,16.168809952316284C13.07796990625,16.175551952316283,13.32262190625,15.943136952316284,13.33097890625,15.648659952316285L13.33097890625,10.489880352316284C13.32680490625,10.191948152316284,13.08023190625,9.954726452316283,12.78235990625,9.962066452316284L12.78345390625,9.966446152316284ZM9.61766390625,13.729038952316284L8.666064706250001,13.729038952316284C8.646225006249999,13.729124952316285,8.62752580625,13.719774952316284,8.61569260625,13.703851952316285C8.60385800625,13.687730952316285,8.60097500625,13.666718952316284,8.60802750625,13.648004952316285L9.09532450625,12.302188952316284C9.10450080625,12.278185652316283,9.12766790625,12.262449052316285,9.15336230625,12.262766552316284C9.17925600625,12.261772852316284,9.20278170625,12.277750752316285,9.211400506250001,12.302188952316284L9.67679690625,13.648004952316285C9.68276210625,13.666825952316284,9.67994780625,13.687333952316283,9.66913130625,13.703851952316285C9.656608106250001,13.720122952316284,9.637096906250001,13.729472952316284,9.61656900625,13.729038952316284L9.61766390625,13.729038952316284ZM18.32988390625,7.830003952316284L1.66650390625,7.830003952316284L1.66650390625,6.030836152316285C1.73913270225,5.254325152316284,2.35968959625,4.642547852316284,3.13715640625,4.580989852316284L6.07846160625,4.580989852316284L6.07846160625,3.266929332316284C6.13271240625,2.752116232316284,6.54303360625,2.347296673316284,7.05853220625,2.299999952316284L12.44946490625,2.299999952316284C12.71697890625,2.321296338316284,12.96600790625,2.444830452316284,13.14482090625,2.644940792316284C13.31827090625,2.8064419023162843,13.42065090625,3.030099332316284,13.42953390625,3.266929332316284L13.42953390625,4.580989852316284L16.860326906250002,4.580989852316284C17.64202290625,4.633220452316284,18.26761790625,5.249965152316284,18.33097990625,6.030836152316285L18.33097990625,7.828908652316284L18.32988390625,7.830003952316284ZM8.036411306249999,3.746561252316284C7.76041510625,3.725383152316284,7.52947710625,3.953221452316284,7.54692460625,4.229478352316284L7.54692460625,4.579894552316285L11.95997590625,4.579894552316285L11.95997590625,4.229478352316284C11.97671990625,3.953047752316284,11.74552690625,3.725467452316284,11.46939470625,3.746561252316284L8.036411306249999,3.746561252316284Z" fill="url(#master_svg1_15_2513)" fill-opacity="1"/></g></g></svg>