<svg xmlns="http://www.w3.org/2000/svg" xmlns:xlink="http://www.w3.org/1999/xlink" fill="none" version="1.1" width="20" height="20" viewBox="0 0 20 20"><defs><clipPath id="master_svg0_298_88348"><rect x="0" y="0" width="20" height="20" rx="0"/></clipPath><linearGradient x1="0.9374535083770752" y1="0.0565708689391613" x2="0.03790989446596493" y2="0.06896307644389754" id="master_svg1_124_24376"><stop offset="0%" stop-color="#C1CFD8" stop-opacity="1"/><stop offset="100%" stop-color="#7E868F" stop-opacity="1"/></linearGradient><linearGradient x1="0.9374535083770752" y1="0.0565708689391613" x2="-0.07950386184920075" y2="0.7491395980556659" id="master_svg2_124_24376"><stop offset="0%" stop-color="#C1CFD8" stop-opacity="1"/><stop offset="100%" stop-color="#7E868F" stop-opacity="1"/></linearGradient></defs><g clip-path="url(#master_svg0_298_88348)"><g><g><path d="M2.4416016925,16.234686851501465C2.3070703625,16.234686851501465,2.2001953125,16.334061667501466,2.2001953125,16.454999461501465L2.2001953125,17.779218751501464C2.2001953125,17.900624651501467,2.3089453625,18.000000551501465,2.4416016925,18.000000551501465L16.956922312499998,18.000000551501465C17.0914523125,18.000000551501465,17.1983293125,17.900625851501466,17.1983293125,17.779687951501465L17.1983293125,16.455468671501464C17.2002043125,16.332187123501466,17.0933293125,16.234686851501465,16.9587963125,16.234686851501465L2.4416016925,16.234686851501465Z" fill="url(#master_svg1_124_24376)" fill-opacity="1"/></g><g><path d="M16.3142643125,3C16.802701312499998,3,17.2002023125,3.3942189799999998,17.2002023125,3.8826567499999998L17.2002023125,14.530787C17.198652312500002,15.018903,16.8023823125,15.413707,16.3142643125,15.413445L3.0861331825000002,15.413445C2.5981972525,15.413707,2.2020026445,15.019189,2.2001953125,14.531256L2.2001953125,3.8826567499999998C2.2001953125,3.3942189799999998,2.5976955325,3,3.0861331825000002,3L16.3142643125,3ZM10.8392610125,5.5931265L8.6089482125,5.5931265C8.403577312500001,5.5933847,8.2372289125,5.759943,8.2372289125,5.9653144000000005L8.2372289125,7.8450027C8.2372289125,8.0512528,8.4036355125,8.2176595,8.6089482125,8.2176595L9.3519168125,8.2176595L9.3523860125,9.212816199999999L7.4005098125,9.212816199999999L7.3761349125,9.213284999999999C6.9235015125,9.2269759,6.5637994125,9.598101100000001,6.5642600125,10.050941L6.5642600125,11.1393795L6.3781657125,11.1393795C6.1726124124999995,11.1396389,6.0061881125,11.3064814,6.0064468125,11.5120363L6.0064468125,12.6290674C6.0064468125,12.8353167,6.1728530125,13.001723,6.3781657125,13.001723L7.4937911125,13.001723C7.6993451125,13.001465,7.8657689125,12.8346224,7.8655100125,12.6290674L7.8655100125,11.5125046C7.8655105125,11.3070574,7.6992373125,11.1403646,7.4937911125,11.1398478L7.3076973125,11.1398478L7.3076973125,10.0514102L7.3086347125,10.0406284C7.3140907125,9.993976100000001,7.3535399125,9.9587541,7.4005098125,9.9585972L9.3523860125,9.9585972L9.3523860125,11.1398478L9.1667604125,11.1398478C8.9610233125,11.1398478,8.7943148125,11.3067675,8.7945728125,11.5125046L8.7945728125,12.6295366C8.7945728125,12.8357859,8.9614477125,13.002193,9.1667604125,13.002193L10.2819176125,13.002193C10.4874716125,13.001935,10.6538954125,12.8350906,10.6536379125,12.6295366L10.6536379125,11.5125046C10.6536379125,11.3070574,10.4873628125,11.1403646,10.2819176125,11.1398478L10.0958238125,11.1398478L10.0958238125,9.9585972L12.0584822125,9.9585972C12.1053572125,9.9646912,12.1405125125,10.004066,12.1405125125,10.0514102L12.1405125125,11.1398478L11.9548874125,11.1398478C11.7491512125,11.1398478,11.5824404125,11.3067675,11.5826998125,11.5125046L11.5826998125,12.6295366C11.5826998125,12.8357859,11.7495746125,13.002193,11.9548874125,13.002193L13.0700433125,13.002193C13.2755973125,13.001935,13.4420213125,12.8350906,13.4417623125,12.6295366L13.4417623125,11.5125046C13.4417643125,11.3070574,13.2754893125,11.1403646,13.0700433125,11.1398478L12.8839503125,11.1398478L12.8839503125,10.0265656C12.8712693125,9.5737424,12.5007023125,9.2131453,12.0476990125,9.212815800000001L10.0958238125,9.212815800000001L10.0958238125,8.217658499999999L10.8392610125,8.217658499999999C11.0446319125,8.217400999999999,11.2109814125,8.0508423,11.2109804125,7.8454709L11.2109804125,5.9657826C11.2112398125,5.7602291,11.0448160125,5.593385,10.8392610125,5.5931265Z" fill="url(#master_svg2_124_24376)" fill-opacity="1"/></g></g></g></svg>