<svg xmlns="http://www.w3.org/2000/svg" xmlns:xlink="http://www.w3.org/1999/xlink" fill="none" version="1.1" width="20" height="20" viewBox="0 0 20 20"><defs><clipPath id="master_svg0_298_59984"><rect x="0" y="0" width="20" height="20" rx="0"/></clipPath><linearGradient x1="0.9374535083770752" y1="0.0565708689391613" x2="0.04990805648224913" y2="0.9391612914130015" id="master_svg1_128_388881"><stop offset="0%" stop-color="#C1CFD8" stop-opacity="1"/><stop offset="100%" stop-color="#7E868F" stop-opacity="1"/></linearGradient><linearGradient x1="0.9374535083770752" y1="0.0565708689391613" x2="0.0498962727541499" y2="0.939149441490685" id="master_svg2_75_11703"><stop offset="0%" stop-color="#C1CFD8" stop-opacity="1"/><stop offset="100%" stop-color="#7E868F" stop-opacity="1"/></linearGradient><linearGradient x1="0.9374535083770752" y1="0.0565708689391613" x2="-0.06021004586806416" y2="0.7892135530837712" id="master_svg3_75_11703"><stop offset="0%" stop-color="#C1CFD8" stop-opacity="1"/><stop offset="100%" stop-color="#7E868F" stop-opacity="1"/></linearGradient><linearGradient x1="0.9374535083770752" y1="0.0565708689391613" x2="0.49077804499132976" y2="1.1236941538864242" id="master_svg4_128_388881"><stop offset="0%" stop-color="#C1CFD8" stop-opacity="1"/><stop offset="100%" stop-color="#7E868F" stop-opacity="1"/></linearGradient></defs><g clip-path="url(#master_svg0_298_59984)"><g><g><path d="M9.5986247,2.2465634899999998C9.5996475,2.10315692,9.477735,1.989588208,9.3347607,2.00075903395C5.4270859,2.32632089,2.32632071,5.4270864,2.00075902912,9.3347616C1.989588221,9.477736,2.10315703,9.5996485,2.24656348,9.5986247L3.7595148,9.5986247C3.8919482,9.5986247,4.0003028,9.4962902,4.0143487,9.364860499999999C4.3143003,6.5428557,6.543859,4.313297,9.365863300000001,4.0133455C9.4974203,4.000545300000001,9.5982003,3.8906822,9.5996284,3.7585116999999997L9.5996284,2.2465634899999998L9.5986247,2.2465634899999998ZM17.999117,10.6641121C18.009703,10.521121,17.895682,10.3996849,17.752309,10.4012518L16.241364,10.4012518C16.109194000000002,10.4026804,15.999331,10.5034599,15.986531,10.6350164C15.68658,13.457021,13.45702,15.68658,10.6350164,15.986529C10.5034599,15.999331,10.4026804,16.109194000000002,10.4012518,16.241364L10.4012518,17.753311C10.4012518,17.896782,10.5216465,18.011156,10.6641121,17.999117C14.571787,17.673555,17.672553,14.572789,17.998113,10.6651154L17.999117,10.6641121Z" fill="url(#master_svg1_128_388881)" fill-opacity="0.5"/></g><g><path d="M10.4012956703125,3.7585116999999997C10.4012956703125,3.8909450999999997,10.5036306703125,3.9992996,10.6350602703125,4.0133455C13.4570650703125,4.3132977,15.6866240703125,6.5428562,15.9865730703125,9.364860499999999C15.9993740703125,9.4964166,16.1092380703125,9.5971975,16.241408070312502,9.5986247L17.752353070312502,9.5986247C17.895823070312503,9.5986247,18.0112000703125,9.4782314,17.9991600703125,9.3357644C17.6740620703125,5.427698400000001,14.5731800703125,2.32639179,10.6651582703125,2.00075900048C10.5221843703125,1.98958843,10.4002713703125,2.10315707,10.4012956703125,2.24656348L10.4012956703125,3.759515L10.4012956703125,3.7585116999999997ZM9.3348049703125,17.999117C9.4777798703125,18.010288,9.5996932703125,17.896718999999997,9.5986690703125,17.753313L9.5986690703125,16.240361C9.5972404703125,16.108190999999998,9.496460470312499,15.998328,9.3649039703125,15.985527C6.5429000703125,15.685575,4.3133411703124995,13.456017,4.0133895703124995,10.6340132C4.0005893703125,10.5024557,3.8907261703125,10.4016762,3.7585556703125,10.4002485L2.2466076303125,10.4002485C2.1036315103125,10.3992729,1.9902525404125,10.5205193,2.0008032011125,10.6631088C2.3259004903125,14.571176,5.4267835703125,17.672482000000002,9.3348049703125,17.998113L9.3348049703125,17.999117Z" fill="url(#master_svg2_75_11703)" fill-opacity="1"/></g><g><path d="M13.488318631948852,13.605725499026489C15.495088231948852,11.66434739902649,15.530489231948852,8.45803379902649,13.567073131948852,6.472820799026489C11.603657531948851,4.4876074490264894,8.397149131948852,4.4876074490264894,6.4337333319488526,6.4728209990264896C4.470318021948852,8.45803499902649,4.505719331948852,11.66434839902649,6.512488731948853,13.605725499026489C6.646886731948852,12.45383719902649,7.341032731948852,11.44246409902649,8.367560131948853,10.90287949902649C7.276039331948852,9.969260899026489,7.189962831948852,8.31147069902649,8.178923831948852,7.269829499026489C9.167884131948853,6.228187399026489,10.827907831948853,6.228187399026489,11.816868531948852,7.269829499026489C12.805829731948853,8.311471499026489,12.719752531948853,9.969260899026489,11.628231731948851,10.90287949902649C12.656304631948853,11.44147469902649,13.352071031948853,12.45302079902649,13.487315431948852,13.605725499026489L13.488318631948852,13.605725499026489Z" fill="url(#master_svg3_75_11703)" fill-opacity="1"/></g><g><path d="M9.999911533447266,7.240906715393066C9.030239133447266,7.240906715393066,8.244164943447265,8.026980875393066,8.244164943447265,8.996652715393067C8.244164943447265,9.966324615393066,9.030239133447266,10.752398715393067,9.999911533447266,10.752398715393067C10.969582833447266,10.752398715393067,11.755657233447266,9.966324615393066,11.755657233447266,8.996652715393067C11.755657233447266,8.026980875393066,10.969582833447266,7.240906715393066,9.999911533447266,7.240906715393066ZM12.508120033447266,14.345156215393066C11.745864833447266,14.786149515393067,10.880540133447266,15.017710215393066,9.999911533447266,15.016353115393066C9.086923733447266,15.016353115393066,8.229116323447265,14.772555315393067,7.491703033447266,14.345156215393066L7.491703033447266,14.013069615393066C7.491703645802886,12.627824815393065,8.614666433447265,11.504861815393067,9.999912033447266,11.504861815393067C11.385157833447266,11.504861815393067,12.508121033447265,12.627824815393065,12.508120033447266,14.013069615393066L12.508120033447266,14.345156215393066Z" fill="url(#master_svg4_128_388881)" fill-opacity="0.5"/></g></g></g></svg>