<svg xmlns="http://www.w3.org/2000/svg" xmlns:xlink="http://www.w3.org/1999/xlink" fill="none" version="1.1" width="20" height="20" viewBox="0 0 20 20"><defs><clipPath id="master_svg0_298_88246"><rect x="0" y="0" width="20" height="20" rx="0"/></clipPath><linearGradient x1="0.03068186528980732" y1="0.29318034648895264" x2="0.9334926073299715" y2="1.0766391171740644" id="master_svg1_15_2513"><stop offset="0%" stop-color="#3D77F8" stop-opacity="1"/><stop offset="100%" stop-color="#293AEE" stop-opacity="1"/></linearGradient><linearGradient x1="0.03068186528980732" y1="0.29318034648895264" x2="1.0683405254026295" y2="0.4142448104186407" id="master_svg2_15_2513"><stop offset="0%" stop-color="#3D77F8" stop-opacity="1"/><stop offset="100%" stop-color="#293AEE" stop-opacity="1"/></linearGradient></defs><g clip-path="url(#master_svg0_298_88246)"><g><g><path d="M13.888671875,3.888916015625C15.115971875,3.88891563415527,16.110892874999998,4.883838295625,16.110894875,6.111138115625L16.110894875,15.000028015625C16.110892874999998,16.227327015625,15.115971875,17.222251015624998,13.888671875,17.222251015624998L6.110893975,17.222251015624998C4.883594155,17.222251015624998,3.88867149353027,16.227327015625,3.888671875,15.000028015625L3.888671875,6.111138115625C3.88867149353027,4.883838295625,4.883594155,3.88891563415527,6.110893975,3.888916015625L6.666449275,3.888916015625L6.666449275,4.444471775625C6.666265474999999,5.025930015625,7.114406375,5.509195715625,7.694227175,5.552804915625L7.777560975,5.555582915625L12.222004875,5.555582915625C12.835655175,5.555582915625,13.333116575,5.058121515625,13.333116575,4.444471775625L13.333116575,3.888916015625L13.888671875,3.888916015625ZM11.666449075,12.222250915625C11.107789475,12.222348215625,10.636073575000001,12.637237515625,10.564652875,13.191313715625C10.493231275,13.745389015625,10.844317875,14.266337015625,11.384690775,14.408103015625C11.925065975,14.549868015625,12.486673375,14.268361015625,12.696449275,13.750582715625L13.749783475,13.750027615625L13.749783475,12.916694615625L12.697005275,12.916694615625C12.527148275,12.496792815625,12.119404775,12.222032515625,11.666449075,12.222250915625ZM12.083116575,7.916694115625L9.999783075,7.916694115625L9.999783075,8.750028115625L12.083116575,8.750028115625C12.543353075,8.750028115625,12.916450475,9.123123615625001,12.916450475,9.583360715625C12.916450475,10.043597715625001,12.543353075,10.416694615625001,12.083116575,10.416694615625001L7.916449975,10.416694615625001C6.996425374999999,10.417329315625,6.250934375,11.163334815625,6.250934375,12.083360715625C6.250934375,13.003386515625,6.996425374999999,13.749392515625,7.916449975,13.750027615625L9.999783075,13.750027615625L9.999783075,12.916694615625L7.916449575,12.916694615625C7.456530375,12.916246415625,7.083929775,12.543281515625,7.083929775,12.083361615625C7.083929775,11.623442215625001,7.456530375,11.250477815625,7.916449575,11.250027615625001L12.083116575,11.250027615625001C13.003590575,11.250027615625001,13.749783475,10.503836115624999,13.749783475,9.583361615625C13.749783475,8.662886615625,13.003590575,7.916694115625,12.083116575,7.916694115625ZM11.666449075,13.055583015625C11.819862375,13.055583015625,11.944228175,13.179948815625,11.944228175,13.333361615625C11.944228175,13.486773515625,11.819862375,13.611139315625,11.666449075,13.611139315625C11.513037175000001,13.611139315625,11.388671875,13.486773515625,11.388671875,13.333361615625C11.388671875,13.179948815625,11.513037175000001,13.055583015625,11.666449075,13.055583015625ZM8.333116575,7.222249315625C7.8801617749999995,7.2220342156249995,7.472419475000001,7.496793015625,7.302560775,7.916693715625L6.249783075,7.916693715625L6.249783075,8.750027215625L7.303116275,8.750582715625C7.512892475,9.268360615625,8.074500575,9.549866215625,8.614873875,9.408101515624999C9.155246275,9.266336415625,9.506332875,8.745388515624999,9.434912675,8.191312815625C9.363492475000001,7.637238015625,8.891776575,7.2223484156249995,8.333116575,7.222249315625ZM8.333116575,8.055583015625C8.486529375,8.055583015625,8.610894675,8.179948315625001,8.610894675,8.333360715625C8.610894675,8.486773515625,8.486529375,8.611138815625,8.333116575,8.611138815625C8.179704175000001,8.611138815625,8.055338875,8.486773515625,8.055338875,8.333360715625C8.055338875,8.179948315625001,8.179704175000001,8.055583015625,8.333116575,8.055583015625Z" fill="url(#master_svg1_15_2513)" fill-opacity="1"/></g><g><path d="M7.77821201,2.77777099609375L12.22265625,2.77777099609375Q12.77821205,2.77777099609375,12.77821205,3.33332675609375L12.77821205,4.44443789609375Q12.77821205,4.99999309609375,12.22265625,4.99999309609375L7.77821201,4.99999309609375Q7.22265625,4.99999309609375,7.22265625,4.44443739609375L7.22265625,3.3333263360937497Q7.22265625,2.77777080535888,7.77821201,2.77777099609375Z" fill="url(#master_svg2_15_2513)" fill-opacity="1"/></g></g></g></svg>