<svg xmlns="http://www.w3.org/2000/svg" xmlns:xlink="http://www.w3.org/1999/xlink" fill="none" version="1.1" width="20" height="20" viewBox="0 0 20 20"><defs><clipPath id="master_svg0_298_80352"><rect x="0" y="0" width="20" height="20" rx="0"/></clipPath><linearGradient x1="0.9374535083770752" y1="0.0565708689391613" x2="-0.07202328364082847" y2="0.2301661402277182" id="master_svg1_124_24376"><stop offset="0%" stop-color="#C1CFD8" stop-opacity="1"/><stop offset="100%" stop-color="#7E868F" stop-opacity="1"/></linearGradient><linearGradient x1="0.9374535083770752" y1="0.0565708689391613" x2="-0.1303457505603901" y2="0.5455373723475754" id="master_svg2_124_24376"><stop offset="0%" stop-color="#C1CFD8" stop-opacity="1"/><stop offset="100%" stop-color="#7E868F" stop-opacity="1"/></linearGradient><linearGradient x1="0.9374535083770752" y1="0.0565708689391613" x2="0.13341046683648677" y2="1.009607612523418" id="master_svg3_124_24376"><stop offset="0%" stop-color="#C1CFD8" stop-opacity="1"/><stop offset="100%" stop-color="#7E868F" stop-opacity="1"/></linearGradient><linearGradient x1="0.9374535083770752" y1="0.0565708689391613" x2="-0.04287776361336168" y2="0.8200194995943791" id="master_svg4_124_24376"><stop offset="0%" stop-color="#C1CFD8" stop-opacity="1"/><stop offset="100%" stop-color="#7E868F" stop-opacity="1"/></linearGradient><linearGradient x1="0.9374535083770752" y1="0.0565708689391613" x2="0.18049806703224802" y2="1.0397054303065245" id="master_svg5_124_24376"><stop offset="0%" stop-color="#C1CFD8" stop-opacity="1"/><stop offset="100%" stop-color="#7E868F" stop-opacity="1"/></linearGradient></defs><g clip-path="url(#master_svg0_298_80352)"><g><path d="M8.27789840702,6.270538330117187L8.42123184,6.806649320117188L11.64123225,5.943871680117187L11.49678805,5.4077606201171875L8.27734375,6.270538330117187L8.27789840702,6.270538330117187Z" fill="url(#master_svg1_124_24376)" fill-opacity="1"/></g><g><path d="M8.5541450375,6.325531005859375L8.2763671875,6.806642115859375L11.163589287499999,8.473308305859375L11.4413671875,7.992197305859375L8.5541450375,6.325531005859375Z" fill="url(#master_svg2_124_24376)" fill-opacity="1"/></g><g><path d="M10.0849862375,2.3627777099609375C13.3583189375,2.3627777099609375,16.011651937499998,5.016666209960937,16.011651937499998,8.289443509960938L16.011651937499998,8.346665409960938C16.011651937499998,9.284998909960937,15.7922089375,10.186665009960937,15.3894299375,10.992219909960937L14.1105409375,10.992219909960937C14.6273659375,10.206775709960937,14.9022479375,9.286892409960938,14.9010969375,8.346665409960938L14.9005409375,8.199443309960937C14.9535259375,5.505419709960938,12.7857379375,3.2921541899609377,10.0911951375,3.2892008399609374C7.3966522375,3.2862475499609376,5.2240190375,5.494754809960938,5.2710974375,8.188888109960939L5.2672085375,8.375554609960938L4.0083197375,9.963887709960938L5.269986637500001,10.233331709960938L5.269986637500001,12.217776309960938C5.269986637500001,12.739378709960938,5.6928286375,13.162220709960938,6.2144310375,13.162220709960938L8.138875437500001,13.162220709960938L8.138875437500001,15.584442709960937L10.8327646375,15.085554709960938L10.8327646375,16.215554709960937L7.0277643375,16.919443709960937L7.0277643375,14.273333709960937L6.2144317375,14.273333709960937C5.105560737499999,14.273336709960937,4.1965499375,13.393823709960937,4.1599872375,12.285556809960937L4.1588759374999995,12.217778209960937L4.1588759374999995,11.131667109960938L3.3383204975,10.956666909960937C2.9068372575,10.864642109960938,2.6218496335,10.452262909960938,2.6883205408,10.016111809960938L2.6977649685,9.967778709960937C2.7244506815,9.842228409960939,2.7797777175,9.724539309960939,2.8594316375,9.623889909960937L4.1672095375,7.975000809960937L4.1733207375,7.871112309960938C4.3866541375,4.821112609960938,6.9038763375,2.4138904509609374,9.9872098375,2.3638904570609376L10.0855422375,2.3627794265745377L10.0849862375,2.3627777099609375Z" fill="url(#master_svg3_124_24376)" fill-opacity="1"/></g><g><path d="M8.2770934675,7.381644997851563C8.7375556375,7.381962497851562,9.1110023375,7.008773797851562,9.1110023375,6.548311597851562C9.1110023375,6.087849397851563,8.7375556375,5.714660597851562,8.2770934675,5.714978697851563C7.8170814175,5.715296197851562,7.4443359375,6.088298697851562,7.4443359375,6.548311597851562C7.4443359375,7.008324397851562,7.8170814175,7.3813268978515625,8.2770934675,7.381644997851563ZM11.6670928375,6.240534197851563C12.1273298375,6.240534197851563,12.500425337500001,5.867438097851562,12.500425337500001,5.407200987851563C12.500425337500001,4.9469638478515625,12.1273298375,4.5738677978515625,11.6670928375,4.5738677978515625C11.206855537500001,4.5738677978515625,10.8337590375,4.9469638478515625,10.8337590375,5.407200987851563C10.8337590375,5.867438097851562,11.206855537500001,6.240534197851563,11.6670928375,6.240534197851563ZM11.3548705375,9.048311197851563C11.815107337499999,9.048311197851563,12.1882038375,8.675214797851563,12.1882038375,8.214977997851562C12.1882038375,7.754740697851562,11.815107337499999,7.381644997851563,11.3548705375,7.381644997851563C10.8946333375,7.381644997851563,10.521537737500001,7.754740697851562,10.521537737500001,8.214977997851562C10.521537737500001,8.675214797851563,10.8946333375,9.048311197851563,11.3548705375,9.048311197851563Z" fill="url(#master_svg4_124_24376)" fill-opacity="1"/></g><g><path d="M16.0763884,15.122228653320313L16.0763884,16.233340253320314L12.1875,16.233340253320314L12.1875,15.122228653320313L16.0763884,15.122228653320313ZM16.0763884,13.455561653320313L16.0763884,14.566673053320311L12.1875,14.566673053320311L12.1875,13.455561653320313L16.0763884,13.455561653320313ZM16.0763884,11.788895416259722L16.0763884,12.900006053320313L12.1875,12.900006053320313L12.1875,11.788894653320312L16.0763884,11.788895416259722Z" fill="url(#master_svg5_124_24376)" fill-opacity="1"/></g></g></svg>