<svg xmlns="http://www.w3.org/2000/svg" xmlns:xlink="http://www.w3.org/1999/xlink" fill="none" version="1.1" width="20" height="20" viewBox="0 0 20 20"><defs><clipPath id="master_svg0_298_88260"><rect x="0" y="0" width="20" height="20" rx="0"/></clipPath><linearGradient x1="0.03068186528980732" y1="0.29318034648895264" x2="1.0070407015567528" y2="0.30304359056765406" id="master_svg1_15_2513"><stop offset="0%" stop-color="#3D77F8" stop-opacity="1"/><stop offset="100%" stop-color="#293AEE" stop-opacity="1"/></linearGradient><linearGradient x1="0.03068186528980732" y1="0.29318034648895264" x2="1.0890341309600227" y2="0.8217159321260601" id="master_svg2_15_2513"><stop offset="0%" stop-color="#3D77F8" stop-opacity="1"/><stop offset="100%" stop-color="#293AEE" stop-opacity="1"/></linearGradient></defs><g clip-path="url(#master_svg0_298_88260)"><g><g><path d="M2.4416016925,15.234685897827148C2.3070703625,15.234685897827148,2.2001953125,15.334060713827148,2.2001953125,15.454998507827149L2.2001953125,16.779217797827148C2.2001953125,16.90062369782715,2.3089453625,16.99999959782715,2.4416016925,16.99999959782715L16.956922312499998,16.99999959782715C17.0914523125,16.99999959782715,17.1983293125,16.90062489782715,17.1983293125,16.77968699782715L17.1983293125,15.455467717827148C17.2002043125,15.332186169827148,17.0933293125,15.234685897827148,16.9587963125,15.234685897827148L2.4416016925,15.234685897827148Z" fill="url(#master_svg1_15_2513)" fill-opacity="1"/></g><g><path d="M16.3142643125,2C16.802701312499998,2,17.2002023125,2.3942189799999998,17.2002023125,2.8826567499999998L17.2002023125,13.530787C17.198652312500002,14.018903,16.8023823125,14.413707,16.3142643125,14.413445L3.0861331825000002,14.413445C2.5981972525,14.413707,2.2020026445,14.019189,2.2001953125,13.531256L2.2001953125,2.8826567499999998C2.2001953125,2.3942189799999998,2.5976955325,2,3.0861331825000002,2L16.3142643125,2ZM10.8392610125,4.5931265L8.6089482125,4.5931265C8.403577312500001,4.5933847,8.2372289125,4.759943,8.2372289125,4.9653144000000005L8.2372289125,6.8450027C8.2372289125,7.0512528,8.4036355125,7.2176595,8.6089482125,7.2176595L9.3519168125,7.2176595L9.3523860125,8.212816199999999L7.4005098125,8.212816199999999L7.3761349125,8.213284999999999C6.9235015125,8.2269759,6.5637994125,8.598101100000001,6.5642600125,9.050941L6.5642600125,10.1393795L6.3781657125,10.1393795C6.1726124124999995,10.1396389,6.0061881125,10.3064814,6.0064468125,10.5120363L6.0064468125,11.6290674C6.0064468125,11.8353167,6.1728530125,12.001723,6.3781657125,12.001723L7.4937911125,12.001723C7.6993451125,12.001465,7.8657689125,11.8346224,7.8655100125,11.6290674L7.8655100125,10.5125046C7.8655105125,10.3070574,7.6992373125,10.1403646,7.4937911125,10.1398478L7.3076973125,10.1398478L7.3076973125,9.0514102L7.3086347125,9.0406284C7.3140907125,8.993976100000001,7.3535399125,8.9587541,7.4005098125,8.9585972L9.3523860125,8.9585972L9.3523860125,10.1398478L9.1667604125,10.1398478C8.9610233125,10.1398478,8.7943148125,10.3067675,8.7945728125,10.5125046L8.7945728125,11.6295366C8.7945728125,11.8357859,8.9614477125,12.002193,9.1667604125,12.002193L10.2819176125,12.002193C10.4874716125,12.001935,10.6538954125,11.8350906,10.6536379125,11.6295366L10.6536379125,10.5125046C10.6536379125,10.3070574,10.4873628125,10.1403646,10.2819176125,10.1398478L10.0958238125,10.1398478L10.0958238125,8.9585972L12.0584822125,8.9585972C12.1053572125,8.9646912,12.1405125125,9.004066,12.1405125125,9.0514102L12.1405125125,10.1398478L11.9548874125,10.1398478C11.7491512125,10.1398478,11.5824404125,10.3067675,11.5826998125,10.5125046L11.5826998125,11.6295366C11.5826998125,11.8357859,11.7495746125,12.002193,11.9548874125,12.002193L13.0700433125,12.002193C13.2755973125,12.001935,13.4420213125,11.8350906,13.4417623125,11.6295366L13.4417623125,10.5125046C13.4417643125,10.3070574,13.2754893125,10.1403646,13.0700433125,10.1398478L12.8839503125,10.1398478L12.8839503125,9.0265656C12.8712693125,8.5737424,12.5007023125,8.2131453,12.0476990125,8.212815800000001L10.0958238125,8.212815800000001L10.0958238125,7.2176585L10.8392610125,7.2176585C11.0446319125,7.217401,11.2109814125,7.0508423,11.2109804125,6.8454709L11.2109804125,4.9657826C11.2112398125,4.7602291,11.0448160125,4.593385,10.8392610125,4.5931265Z" fill="url(#master_svg2_15_2513)" fill-opacity="1"/></g></g></g></svg>