<svg xmlns="http://www.w3.org/2000/svg" xmlns:xlink="http://www.w3.org/1999/xlink" fill="none" version="1.1" width="20" height="20" viewBox="0 0 20 20"><defs><clipPath id="master_svg0_298_48289"><rect x="0" y="0" width="20" height="20" rx="0"/></clipPath><linearGradient x1="0.03068186528980732" y1="0.29318034648895264" x2="0.9994607466504353" y2="1.000738338429799" id="master_svg1_15_2513"><stop offset="0%" stop-color="#3D77F8" stop-opacity="1"/><stop offset="100%" stop-color="#293AEE" stop-opacity="1"/></linearGradient><linearGradient x1="0.03068186528980732" y1="0.29318034648895264" x2="1.0871816222362443" y2="0.8276734219026034" id="master_svg2_15_2513"><stop offset="0%" stop-color="#3D77F8" stop-opacity="1"/><stop offset="100%" stop-color="#293AEE" stop-opacity="1"/></linearGradient><linearGradient x1="0.03068186528980732" y1="0.29318034648895264" x2="0.9992450657323069" y2="1.001032985553895" id="master_svg3_15_2513"><stop offset="0%" stop-color="#3D77F8" stop-opacity="1"/><stop offset="100%" stop-color="#293AEE" stop-opacity="1"/></linearGradient><linearGradient x1="0.03068186528980732" y1="0.29318034648895264" x2="1.1142098404252532" y2="0.6804863162529688" id="master_svg4_15_2513"><stop offset="0%" stop-color="#3D77F8" stop-opacity="1"/><stop offset="100%" stop-color="#293AEE" stop-opacity="1"/></linearGradient><linearGradient x1="0.03068186528980732" y1="0.29318034648895264" x2="0.9323556948977664" y2="1.077741660868107" id="master_svg5_15_2513"><stop offset="0%" stop-color="#3D77F8" stop-opacity="1"/><stop offset="100%" stop-color="#293AEE" stop-opacity="1"/></linearGradient></defs><g clip-path="url(#master_svg0_298_48289)"><g><path d="M10.0001082625,3.055572509765625C13.7051080625,3.055572509765625,16.7323290625,5.956683409765625,16.9334420625,9.611127809765625L15.8206640625,9.611127809765625C15.6206650625,6.570572409765624,13.0912200625,4.166684109765625,10.0001096625,4.166684109765625C6.7784428625,4.166684109765625,4.1667765625,6.778350609765625,4.1667765625,10.000016709765625C4.1667765625,13.221682509765625,6.7784414625,15.833349509765625,10.0001082625,15.833349509765625C10.4056634625,15.833349509765625,10.8017744625,15.791682509765625,11.1834411625,15.713349509765624L11.1834411625,16.843905509765627C10.7989969625,16.910572509765625,10.4034414625,16.944460509765626,10.0001082625,16.944460509765626C6.1645524625,16.944460509765626,3.0556640625,13.835572509765624,3.0556640625,10.000016709765625C3.0556640625,6.164460609765625,6.1645524625,3.055572509765625,10.0001082625,3.055572509765625Z" fill="url(#master_svg1_15_2513)" fill-opacity="1"/></g><g><path d="M4.302734375,12.898877785742187C5.426623075,11.965544135742187,6.609956475000001,11.573322285742188,7.799401475,11.932211305742188C8.491623875,12.141655745742188,8.966067774999999,12.706100465742187,9.278845275,13.443877485742188C9.590512275,14.179988885742187,9.774956675,15.159433885742187,9.856623175,16.35109948574219L8.747734574999999,16.426654785742187C8.669956175,15.289432485742187,8.497734075,14.449988585742187,8.255512475,13.877765685742187C8.014401475,13.307765985742188,7.736623574999999,13.074431685742187,7.478290075,12.996654485742187C6.767178575,12.781654415742187,5.962734575,12.963877185742188,5.012179135,13.753321185742188L4.302734375,12.898877785742187Z" fill="url(#master_svg2_15_2513)" fill-opacity="1"/></g><g><path d="M15.548308325,11.862203122148438C16.264616925,12.578828352148438,16.405800325,13.689111952148437,15.891641625,14.562202652148438L16.851642625,15.523313952148438L16.066086325,16.30887035214844L15.106086025,15.347758752148437C14.142247725,15.911813752148436,12.909552725,15.673373652148438,12.225578304999999,14.790580952148439C11.541603865,13.907787052148437,11.618613435,12.654607252148438,12.405530515,11.862203122148438C13.273371025,10.994316892148438,14.680467825000001,10.994316892148438,15.548308325,11.862203122148438ZM14.762197024999999,12.648314452148437C14.330640325000001,12.201476932148438,13.616562524999999,12.195265832148438,13.177300225,12.634528852148438C12.738037045,13.073792052148438,12.744248155,13.787869952148437,13.191086525,14.219424952148437C13.627062125,14.640504852148437,14.320069025,14.634482152148438,14.748662425,14.205888752148438C15.177254225,13.777297052148437,15.183277125,13.084290052148438,14.762197024999999,12.648314452148437Z" fill="url(#master_svg3_15_2513)" fill-opacity="1"/></g><g><path d="M17.416079562500002,8.158309936523438L18.2021908625,8.943865236523438L17.0244138625,10.122198436523437L16.2388577625,10.908309936523438L16.2377469625,10.908309936523438L15.4521909625,10.122754736523438L15.4521909625,10.122199136523438L14.2744140625,8.944421406523437L15.0605254725,8.158309936523438L16.238302462500002,9.336087836523438L17.416079562500002,8.158309936523438Z" fill="url(#master_svg4_15_2513)" fill-opacity="1"/></g><g><path d="M9.4160366375,3.3205718994140625C10.1182584375,3.8372387294140626,10.619369537499999,4.4500163994140625,10.8582577375,5.168905399414062C11.2877020375,6.461683299414062,10.2421474375,7.790016699414062,8.7949252375,8.183905599414063C8.5560369375,8.248905699414063,8.4915919375,8.320572399414061,8.4699249375,8.348350499414064C8.4354806375,8.392794099414061,8.4082579375,8.459461699414064,8.362703337500001,8.656683899414062C8.3227028375,8.829461599414063,8.267703537500001,9.108906299414063,8.1310367375,9.393351099414062C7.9865923375,9.692795299414062,7.7610373375,9.985017799414063,7.3965921375,10.255572799414063C6.491036637500001,10.928906899414063,5.2171480374999994,11.282240899414063,3.6465926985,11.380572299414062L3.5771484375,10.271684599414062C5.0438150375,10.179461999414062,6.0727036375,9.855572699414061,6.7343700375,9.363906399414063C6.957702837499999,9.197795399414062,7.0649256375,9.045017699414062,7.129369737499999,8.911683999414063C7.2010364375,8.762794999414062,7.2299251375,8.620572999414062,7.2793696375,8.406128399414062C7.323814137499999,8.214461799414062,7.3927028375,7.9261278994140625,7.5904812375,7.6694612994140625C7.8015923375,7.396128199414062,8.1060366375,7.219461399414063,8.503258737500001,7.111683599414063C9.599925537499999,6.8133503994140625,9.9554810375,5.975016399414063,9.8038139375,5.519461199414062C9.6560363375,5.073350199414063,9.3271470375,4.635016599414063,8.7577028375,4.215571999414062L9.4160366375,3.3211277008540625L9.4160366375,3.3205718994140625Z" fill="url(#master_svg5_15_2513)" fill-opacity="1"/></g></g></svg>