<svg xmlns="http://www.w3.org/2000/svg" xmlns:xlink="http://www.w3.org/1999/xlink" fill="none" version="1.1" width="20" height="20" viewBox="0 0 20 20"><defs><clipPath id="master_svg0_298_60012"><rect x="0" y="0" width="20" height="20" rx="0"/></clipPath><linearGradient x1="0.9374535083770752" y1="0.0565708689391613" x2="0.04972641127047497" y2="0.9389785554824825" id="master_svg1_9_0457"><stop offset="0%" stop-color="#C1CFD8" stop-opacity="1"/><stop offset="100%" stop-color="#7E868F" stop-opacity="1"/></linearGradient></defs><g clip-path="url(#master_svg0_298_60012)"><g><path d="M18.15432590625,9.2711229C17.94848590625,8.9211946,17.60884890625,8.6124339,17.18687690625,8.3963017C16.981034906250002,8.2830896,16.74431890625,8.200752300000001,16.49731090625,8.149292899999999L16.49731090625,7.6655679C16.49731090625,7.408267,16.43555690625,7.0480461,16.301762906249998,6.5746131C16.09592390625,6.1629324,15.75628690625,5.802712,15.33431390625,5.5557027C14.94321690625,5.3189867,14.50066090625,5.1954823,14.03751790625,5.1954823L10.45589350625,5.1954823L10.45589350625,4.207447999999999C11.10429190625,4.0016077,11.50567910625,3.3635024,11.41305260625,2.6945207C11.32042410625,2.0255392800000003,10.75436310625,1.521230163,10.07508940625,1.50064603891C9.39581540625,1.480061915,8.80917070625,1.95349503,8.67537500625,2.6121846C8.541578306249999,3.2708744000000003,8.90179870625,3.9398558,9.53990360625,4.1868639000000005L9.53990360625,5.2057745L5.97886180625,5.2057745C5.50542930625,5.2057745,5.06287260625,5.339570500000001,4.68206710625,5.5659947C4.26009390625,5.8130035,3.92045740625,6.1732244,3.71461680625,6.5849051C3.5808203062499997,7.0583382,3.51906790625,7.4185586,3.51906790625,7.6758595L3.51906790625,8.159584500000001C3.27205930625,8.211044300000001,3.03534280625,8.293380299999999,2.82950250625,8.4065933C2.40752947625,8.6227255,2.06789275625,8.9314857,1.86205229625,9.2814155C1.72825608025,9.6828032,1.66650390625,9.9915648,1.66650390625,10.2076979L1.66650390625,10.7325888C1.66650390625,11.741208,2.44869762625,12.554278,3.51906790625,12.780704L3.51906790625,13.377642C3.51906790625,14.756771,4.599730206249999,15.847726,5.96856930625,15.847726L14.02722490625,15.847726C15.39606490625,15.847726,16.47672390625,14.756771,16.47672390625,13.377642L16.47672390625,12.780704C17.54709590625,12.554278,18.32928990625,11.730918,18.32928990625,10.7325888L18.32928990625,10.2076979C18.34987290625,9.9812737,18.28812190625,9.6725121,18.15432590625,9.2711229ZM3.52936060625,11.638288C3.18972400625,11.4427404,2.95300730625,11.1031036,2.95300730625,10.7222986L2.95300730625,10.2797413C2.95300730625,10.228281,2.95300730625,9.7651405,3.02505130625,9.6519279C3.14855560625,9.4769635,3.32352030625,9.332875699999999,3.52936060625,9.2299562L3.52936060625,11.638288ZM7.22419740625,11.4324474L6.30820660625,11.4324474L6.30820660625,9.5901766L7.22419740625,9.5901766L7.22419740625,11.4324474ZM8.81946180625,12.25581L7.90347050625,12.25581L7.90347050625,8.7565212L8.81946180625,8.7565212L8.81946180625,12.25581ZM10.46618460625,13.285013L9.55019380625,13.285013L9.55019380625,7.2127194L10.46618460625,7.2127194L10.46618460625,13.285013ZM12.15407690625,12.255812L11.23808570625,12.255812L11.23808570625,8.7565227L12.15407690625,8.7565227L12.15407690625,12.255812ZM13.71846390625,11.4324503L12.80247290625,11.4324503L12.80247290625,9.5901766L13.71846390625,9.5901766L13.71846390625,11.4324503ZM17.073663906249998,10.7222986C17.073663906249998,11.0928116,16.83694590625,11.4324503,16.497308906249998,11.638288L16.497308906249998,9.240247700000001C16.69285690625,9.332875699999999,16.867822906249998,9.476965,17.00161790625,9.662219C17.073661906250003,9.7754326,17.08395590625,10.2385731,17.08395590625,10.2900343L17.08395590625,10.7222986L17.073663906249998,10.7222986ZM13.13181890625,16.990142L6.89485170625,16.990142C6.56550790625,16.990142,6.30820660625,17.257733,6.30820660625,17.576786C6.30820660625,17.90613,6.57579900625,18.163431,6.89485170625,18.163431L13.13181590625,18.163431C13.46116090625,18.163431,13.71846290625,17.895838,13.71846290625,17.576786C13.71846290625,17.247442,13.45086890625,16.990142,13.13181890625,16.990142Z" fill="url(#master_svg1_9_0457)" fill-opacity="1"/></g></g></svg>