<svg xmlns="http://www.w3.org/2000/svg" xmlns:xlink="http://www.w3.org/1999/xlink" fill="none" version="1.1" width="20" height="20" viewBox="0 0 20 20"><defs><clipPath id="master_svg0_298_59958"><rect x="0" y="0" width="20" height="20" rx="0"/></clipPath><linearGradient x1="0.03068186528980732" y1="0.29318034648895264" x2="0.9663528779377433" y2="1.0420407294712313" id="master_svg1_15_2513"><stop offset="0%" stop-color="#3D77F8" stop-opacity="1"/><stop offset="100%" stop-color="#293AEE" stop-opacity="1"/></linearGradient></defs><g clip-path="url(#master_svg0_298_59958)"><g><path d="M6.9125271,2.02116704C6.8085222,1.70915255,6.5182228,1.5,6.1902075,1.5C5.8620088,1.49987515288,5.5705688,1.70982239,5.466745599999999,2.0211668L4.7307119,4.230411999999999L2.52032393,4.9675889C2.20951203,5.0716374,2,5.3627141,2,5.6904798C2,6.0182452,2.20951211,6.3093219,2.52032393,6.4133701L4.7307119,7.1494045L5.466745599999999,9.359791300000001C5.5707941000000005,9.6706038,5.861871,9.8801155,6.1896362,9.8801155C6.5174012,9.8801155,6.8084784,9.6706038,6.9125271,9.359791300000001L7.6497035,7.149404L9.8589492,6.4133697C10.1697617,6.3093219,10.3792725,6.0182452,10.3792725,5.6904798C10.3792725,5.3627141,10.1697617,5.0716374,9.8589492,4.9675884L7.6497035,4.230411999999999L6.9125271,2.02116704ZM13.580319,6.0716391C14.232923,6.0716391,14.677514,6.0716391,15.020387,6.1002116C15.354118,6.1276417,15.524413,6.1767864,15.644418,6.237361C15.931356,6.383472,16.164624,6.6167388,16.310734,6.9036775C16.371307,7.0225406,16.420453000000002,7.1928339,16.447884000000002,7.5265636C16.476456,7.8694363,16.476456,8.3140283,16.476456,8.96663L16.476456,11.556465C16.476456,12.209066,16.475310999999998,12.653658,16.44674,12.996531C16.420453000000002,13.330261,16.370165,13.500554,16.309590999999998,13.62056C16.163299000000002,13.90743,15.930144,14.139441,15.644418,14.286877C15.524412,14.346307,15.354117,14.396595,15.020389,14.424025C14.677515,14.452598,14.232924,14.452598,13.581465,14.452598L13.101442,14.452598C12.879058,14.452762,12.66783,14.550024,12.523129,14.718896L11.1424942,16.330399999999997L9.761859399999999,14.717754C9.6178522,14.549747,9.4052715,14.452599,9.1835465,14.452599L8.4760852,14.452599C7.9320598,14.452599,7.564043,14.451456,7.2760296,14.432026C6.997159,14.412596,6.8508668,14.378308,6.7502909,14.33602C6.3765593,14.181728,6.0794029,13.884572,5.9251099,13.51084C5.8828225,13.410265,5.848535099999999,13.263972,5.8291053999999995,12.985102C5.808533199999999,12.697087,5.808533199999999,12.327928,5.808533199999999,11.785046C5.7926779,11.3758173,5.4563193000000005,11.0522385,5.0467834,11.0522385C4.637248,11.0522385,4.3008893,11.3758173,4.2850342,11.785046L4.2850342,11.811333C4.2850342,12.322213,4.2850342,12.742805,4.3090339,13.087965C4.3224432,13.432764,4.3927259,13.77298,4.5170434,14.094868C4.826566,14.841796,5.4202626,15.435081,6.1674051,15.744087C6.4888544,15.868711,6.8286829,15.939381,7.1731663,15.953239C7.5183249,15.976097,7.9389157,15.976097,8.4497962,15.976097L8.8326721,15.976097L10.5641804,17.996763C10.8683739,18.350956,11.4166117,18.350956,11.7208042,17.996763L13.452313,15.976097L13.612321,15.976097C14.226065,15.976097,14.732373,15.976097,15.143821,15.94181C15.572412,15.906379,15.965573,15.832089,16.335875,15.643509C16.909616,15.352067,17.375923999999998,14.885759,17.668509,14.312019C17.855945,13.942859,17.931376999999998,13.548555,17.965666,13.119964C17.999952,12.708516,17.999952,12.201065,17.999952,11.588465L17.999952,8.934628499999999C17.999952,8.3220291,17.999952,7.8145771,17.965666,7.4031296C17.930234,6.9745378,17.855945,6.581377,17.667366,6.2110744C17.375923999999998,5.6384764,16.909616,5.1721687,16.335875,4.8795838C15.966715,4.6910036,15.572412,4.6155715,15.143821,4.5812843C14.732373,4.5469971000000005,14.226066,4.5469971000000005,13.612321,4.5469971000000005L12.665992,4.5469971000000005C12.244974,4.5469973,11.9036713,4.8882999,11.9036713,5.3093181000000005C11.9036713,5.7303362,12.244974,6.0716391,12.665992,6.0716391L13.580319,6.0716391ZM6.0553441,5.0738795L6.1902075,4.6715751L6.3239284,5.0738795C6.3997955,5.3016176,6.5784974,5.4803201999999995,6.8062363,5.5561872L7.2085404,5.6899076L6.8062363,5.8247709C6.5784974,5.9006381,6.3997955,6.0793405,6.3239284,6.3070793L6.1902075,6.7093835L6.0553441,6.3070793C5.9799125,6.0784969,5.801618599999999,5.9002028,5.573036699999999,5.8247709L5.1707323,5.6899076L5.573036699999999,5.5561872C5.8007751,5.4803201999999995,5.9794774,5.3016176,6.0553441,5.0738795ZM11.5767422,8.2123103C11.514245,8.0256495,11.3392811,7.8999524,11.1424379,7.9002957C10.9460135,7.900444,10.7716389,8.0260491,10.7092743,8.2123103L10.2098217,9.7095213L8.7126102,10.2089739C8.525884600000001,10.2711725,8.399922799999999,10.4458952,8.399922799999999,10.6427088C8.399922799999999,10.8395214,8.525884600000001,11.014245,8.7126102,11.0764427L10.2098217,11.575895L10.7092743,13.073106C10.7719946,13.258959,10.9462852,13.384089,11.142437,13.384089C11.3385868,13.384089,11.5128784,13.258959,11.5755997,13.073106L12.07505,11.575893L13.572263,11.0775843C13.759871,11.0159216,13.886677,10.8407612,13.886677,10.64328C13.886677,10.4457979,13.759871,10.2706375,13.572263,10.2089739L12.07505,9.7095213L11.5767422,8.2123103Z" fill-rule="evenodd" fill="url(#master_svg1_15_2513)" fill-opacity="1"/></g></g></svg>