<svg xmlns="http://www.w3.org/2000/svg" xmlns:xlink="http://www.w3.org/1999/xlink" fill="none" version="1.1" width="20" height="20" viewBox="0 0 20 20"><defs><clipPath id="master_svg0_298_48321"><rect x="0" y="0" width="20" height="20" rx="0"/></clipPath><linearGradient x1="0.03068186528980732" y1="0.29318034648895264" x2="0.9567167510826579" y2="1.0527678487945782" id="master_svg1_15_2513"><stop offset="0%" stop-color="#3D77F8" stop-opacity="1"/><stop offset="100%" stop-color="#293AEE" stop-opacity="1"/></linearGradient><linearGradient x1="0.03068186528980732" y1="0.29318034648895264" x2="1.0493867179167786" y2="0.9196982405918683" id="master_svg2_15_2513"><stop offset="0%" stop-color="#3D77F8" stop-opacity="1"/><stop offset="100%" stop-color="#293AEE" stop-opacity="1"/></linearGradient></defs><g clip-path="url(#master_svg0_298_48321)"><g><g><path d="M12.928572,2C14.703773,2.000000081743515,16.142858,3.4390846,16.142858,5.2142859L16.142858,10.6425714C16.142858,10.997612,15.85504,11.285429,15.5,11.285429C15.14496,11.285429,14.857143,10.997612,14.857143,10.6425714L14.857143,5.2142859C14.857143,4.1491652000000006,13.993691,3.2857145,12.928572,3.2857143L5.2142859,3.2857143C4.1491652000000006,3.2857143,3.2857143,4.1491652000000006,3.2857143,5.2142859L3.2857143,13.785714C3.2857143,14.850835,4.1491652000000006,15.714286,5.2142859,15.714286L9.0714288,15.714286C9.4264693,15.714288,9.714286300000001,16.002105,9.714286300000001,16.357143999999998C9.714286300000001,16.712184999999998,9.4264693,17.000002000000002,9.0714288,17L5.2142859,17C3.4390848,17,2.00000016348703,15.560915,2,13.785714L2,5.2142859C1.99999983651297,3.4390846,3.4390845,2.000000081743515,5.2142859,2L12.928572,2Z" fill="url(#master_svg1_15_2513)" fill-opacity="1"/></g><g><path d="M13.05028606368103,10.974285374737548C13.10828426368103,10.857914674737549,13.227120163681029,10.784365174737548,13.357142663681032,10.784365174737548C13.487166163681032,10.784365174737548,13.606001663681031,10.857914674737549,13.664000763681031,10.974285374737548L14.44571376368103,12.542857174737549C14.47896836368103,12.609715974737549,14.53314186368103,12.66388897473755,14.59999916368103,12.69714307473755L16.16857116368103,13.47885707473755C16.28494216368103,13.53685517473755,16.358492163681028,13.655691174737548,16.358492163681028,13.78571417473755C16.358492163681028,13.91573767473755,16.28494216368103,14.034573074737548,16.16857116368103,14.09257177473755L14.59999916368103,14.874285174737548C14.53314186368103,14.90754027473755,14.47896836368103,14.96171377473755,14.44571376368103,15.02857117473755L13.664000763681031,16.59714367473755C13.606001663681031,16.713514774737547,13.487166163681032,16.78706407473755,13.357142663681032,16.78706407473755C13.227120163681029,16.78706407473755,13.10828426368103,16.713514774737547,13.05028606368103,16.59714367473755L12.26857166368103,15.02857117473755C12.235317463681032,14.96171377473755,12.18114446368103,14.90754027473755,12.11428566368103,14.874285174737548L10.545713663681031,14.09257177473755C10.42934296368103,14.034573074737548,10.355793763681032,13.91573767473755,10.355793763681032,13.78571417473755C10.355793763681032,13.655691174737548,10.42934296368103,13.53685517473755,10.545713663681031,13.47885707473755L12.11428566368103,12.69714307473755C12.18114446368103,12.66388897473755,12.235317463681032,12.609715974737549,12.26857166368103,12.542857174737549L13.05028606368103,10.974285374737548ZM8.214285563681031,10.57142857473755C8.56908106368103,10.57177517473755,8.85651566368103,10.859490674737549,8.85651566368103,11.214285874737548C8.85651566368103,11.569081774737548,8.56908056368103,11.85679677473755,8.214285563681031,11.857142974737549L6.49999994368103,11.857142974737549C6.14520502368103,11.85679627473755,5.8577709538510305,11.569080874737548,5.8577709538510305,11.214285874737548C5.8577709538510305,10.859490174737548,6.14520502368103,10.57177517473755,6.49999994368103,10.57142857473755L8.214285563681031,10.57142857473755ZM11.64285726368103,7.142857074737549C11.99789736368103,7.142857074737549,12.28571436368103,7.430674014737549,12.28571436368103,7.785714204737549C12.28571436368103,8.14075440473755,11.99789736368103,8.42857137473755,11.64285726368103,8.42857137473755L6.49999994368103,8.42857137473755C6.14495977368103,8.42857137473755,5.85714316368103,8.14075440473755,5.85714316368103,7.785714204737549C5.85714316368103,7.430674014737549,6.14495977368103,7.142857074737549,6.49999994368103,7.142857074737549L11.64285726368103,7.142857074737549Z" fill="url(#master_svg2_15_2513)" fill-opacity="1"/></g></g></g></svg>