<svg xmlns="http://www.w3.org/2000/svg" xmlns:xlink="http://www.w3.org/1999/xlink" fill="none" version="1.1" width="20" height="20" viewBox="0 0 20 20"><defs><clipPath id="master_svg0_298_59966"><rect x="0" y="0" width="20" height="20" rx="0"/></clipPath><linearGradient x1="0.03068186528980732" y1="0.29318034648895264" x2="1.0563490522838799" y2="0.9056328950136476" id="master_svg1_15_2513"><stop offset="0%" stop-color="#3D77F8" stop-opacity="1"/><stop offset="100%" stop-color="#293AEE" stop-opacity="1"/></linearGradient></defs><g clip-path="url(#master_svg0_298_59966)"><g><path d="M17.285587047683716,6.1919303C16.169232047683714,3.6453775999999998,13.652217047683715,2.00032613121,10.871718647683716,2L10.870385447683717,2C7.796367447683716,2.00020263673,5.081759247683715,4.0047946,4.1770508476837165,6.9426665C4.766398147683716,7.0302124,5.300821547683716,7.3374352,5.6730506476837155,7.8026662C6.300551647683716,5.085278000000001,8.915680147683716,3.3101716999999997,11.672776047683715,3.7301515C14.429872047683716,4.1501307,16.397864047683715,6.6233692,16.187816047683718,9.404347900000001C15.977769047683715,12.185326,13.660617047683715,14.334908,10.871716747683715,14.335999C10.525050447683716,14.335999,10.186383447683715,14.304,9.859717647683716,14.242666C9.553286747683716,14.675084,9.122028547683716,15.00353,8.623716547683717,15.184C8.375716947683717,15.273335,8.119716847683716,15.321334,7.862384047683716,15.329333C8.802385547683716,15.776836,9.830630547683716,16.008271,10.871716747683715,16.006667C12.147327047683715,16.008533999999997,13.398993047683716,15.660338,14.490384047683715,15.000001L17.487720047683716,18L18.881053047683714,16.606668L16.022385047683716,13.749333C17.906223047683717,11.704257,18.401946047683715,8.7384825,17.285587047683716,6.1919303ZM11.863712047683716,7.3120003C11.807711047683716,6.5706663,11.187711047683715,6,10.427711747683716,6C9.809044147683716,6,9.273044847683716,6.3986669,9.075709147683716,6.9986677C8.925194547683716,7.4499407,9.005935947683716,7.9463577,9.291709147683715,8.3266678L7.910376347683716,11.5493345C7.890376347683715,11.5573349,7.8677094476837155,11.5626678,7.837043047683716,11.5626678C7.649670847683716,11.542057,7.4601390476837155,11.5695925,7.286376247683716,11.6426678L7.273042947683716,11.6493349L4.8490433476837165,9.630668199999999C4.914617747683716,9.4335203,4.916018447683715,9.2206621,4.853043047683716,9.0226688C4.722362547683716,8.5938511,4.342602947683716,8.288667700000001,3.895709947683716,8.253335C3.445043547683716,8.196002,3.023710047683716,8.453335299999999,2.8263769476837157,8.880002000000001C2.656139247683716,9.249576600000001,2.7142947476837156,9.6841865,2.975710347683716,9.9960022L2.9917105476837156,10.0146694L2.109043837683716,11.4853354C1.4840257476837158,11.4950314,1.0493359676837157,12.110336,1.2490438336837157,12.702669C1.3623771676837158,13.073336,1.643710407683716,13.301334,2.038377167683716,13.358669C2.4193146476837155,13.409956,2.791193347683716,13.215467,2.966377247683716,12.873335C3.163710847683716,12.530668,3.135710747683716,12.160002,2.8823773476837156,11.8466682L2.853043947683716,11.7973347L3.697043847683716,10.3920012L3.6983771476837157,10.3920012C3.867710547683716,10.4213343,4.065043947683716,10.3920012,4.234377347683716,10.3066673C4.290377347683716,10.2786674,4.346377347683716,10.2786674,4.402377347683716,10.3346672C4.521524647683716,10.4197769,4.640192947683715,10.5055571,4.758377347683716,10.592001L6.667711047683716,12.186666C6.422910447683716,12.626541,6.473767947683716,13.171665,6.795711747683716,13.558666C7.135674247683716,13.954322,7.683258747683716,14.101403,8.175711847683715,13.929333C8.613345847683716,13.781622,8.922435047683717,13.389376,8.963711047683717,12.929333C9.013045047683715,12.538667,8.893044747683716,12.188,8.626377847683717,11.9159994L9.586378347683716,9.6706667L10.033045047683716,8.909333700000001C10.061044947683715,8.852000199999999,10.090378047683716,8.8240008,10.146378747683716,8.852000199999999C10.314064247683715,8.8804989,10.485358447683716,8.8804989,10.653044947683716,8.852000199999999C11.393901047683716,8.72861,11.918705047683716,8.0610456,11.863712047683716,7.3120003Z" fill-rule="evenodd" fill="url(#master_svg1_15_2513)" fill-opacity="1"/></g></g></svg>