<svg xmlns="http://www.w3.org/2000/svg" xmlns:xlink="http://www.w3.org/1999/xlink" fill="none" version="1.1" width="20" height="20" viewBox="0 0 20 20"><defs><clipPath id="master_svg0_298_59982"><rect x="0" y="0" width="20" height="20" rx="0"/></clipPath><linearGradient x1="0.03068186528980732" y1="0.29318034648895264" x2="1.0924503023829941" y2="0.8101068163649403" id="master_svg1_15_2513"><stop offset="0%" stop-color="#3D77F8" stop-opacity="1"/><stop offset="100%" stop-color="#293AEE" stop-opacity="1"/></linearGradient></defs><g clip-path="url(#master_svg0_298_59982)"><g><path d="M17.982135,14.415812Q18.062529,14.89817,17.781152,15.284057Q17.499777,15.669942,17.017419,15.750336L15.087986,16.055829Q14.621706,16.136222,14.227781,15.854846Q13.833856,15.57347,13.753462,15.091113L12.113444,4.7043321Q12.081287,4.463153,12.137563,4.2460918Q12.193838,4.0290307,12.322467,3.8441267Q12.451096,3.65922272,12.652077,3.5386331699999998Q12.853059,3.41804361,13.094238,3.36980772L15.007592,3.064314149Q15.489949,2.983921116,15.875836,3.27333602Q16.261724,3.56275094,16.342116,4.0451092L17.982135,14.415812ZM9.8945966,3.000000076818516Q10.376955,3.000000076818516,10.7146053,3.33765087Q11.0522556,3.67530173,11.0522556,4.1576598L11.0522556,14.89817Q11.0522556,15.380527,10.7146053,15.718178Q10.376955,16.055829,9.8945966,16.055829L8.2224216,16.055829Q7.7400632,16.055829,7.4024129,15.718178Q7.0647616,15.380527,7.0647616,14.89817L7.0647616,4.1576596Q7.0647616,3.67530143,7.3220196,3.33765072Q7.5792766,3,8.077714,3L9.8945966,3.000000076818516ZM9.8945966,11.1036186Q10.0553827,11.1036186,10.1679325,10.9508715Q10.2804832,10.798125299999999,10.2804832,10.5891027Q10.2804832,10.3640022,10.1679325,10.2192945Q10.0553827,10.0745869,9.8945966,10.0745869L8.2224216,10.0745869Q8.061635500000001,10.0745869,7.9490852,10.2192945Q7.836535,10.3640022,7.836535,10.5891027Q7.836535,10.798125299999999,7.9490852,10.9508715Q8.061635500000001,11.1036186,8.2224216,11.1036186L9.8945966,11.1036186ZM9.8945966,9.061634999999999Q10.0553827,9.061634999999999,10.1679325,8.9088888Q10.2804832,8.7561417,10.2804832,8.5310411Q10.2804832,8.3059397,10.1679325,8.1612334Q10.0553827,8.016525699999999,9.8945966,8.0165253L8.2224216,8.0165253Q8.061635500000001,8.0165253,7.9490852,8.1612334Q7.836535,8.3059411,7.836535,8.5310411Q7.836535,8.7561417,7.9490852,8.9088888Q8.061635500000001,9.061636,8.2224216,9.061634999999999L9.8945966,9.061634999999999ZM4.845913400000001,3.000000076818516Q5.3282716,3.000000076818516,5.6739616,3.33765087Q6.0196519,3.67530173,6.0196519,4.1576598L6.0196519,14.89817Q6.0196519,15.380527,5.6739616,15.718178Q5.3282716,16.055829,4.845913400000001,16.055829L3.1737384,16.055829Q2.69138014,16.055829,2.34569004,15.718178Q1.999999961590742,15.380527,2,14.89817L2,4.1576596Q2,3.67530143,2.34569004,3.33765072Q2.69138014,3,3.1737384,3L4.845913400000001,3.000000076818516ZM3.2380528,7.0196519Q3.0611882,7.0196519,2.94863784,7.1643591Q2.83608764,7.3090663,2.83608764,7.5341673Q2.83608764,7.7431889,2.94863784,7.8959355Q3.0611882,8.0486822,3.2380528,8.0486822L4.781598799999999,8.0486822Q4.958463699999999,8.0486822,5.0629745,7.8959355Q5.1674855,7.7431889,5.1674855,7.5341673Q5.1674855,7.3090668,5.0629745,7.1643591Q4.958463699999999,7.0196514,4.781598799999999,7.0196519L3.2380528,7.0196519ZM4.845913400000001,12.0683346Q5.022778300000001,12.0683346,5.1272888000000005,11.9236269Q5.2317996,11.7789192,5.2317998,11.5698967Q5.2317998,11.3447962,5.1272888000000005,11.2081289Q5.0227778,11.0714607,4.8459132,11.0714607L3.2380525000000002,11.0714607Q3.0611879,11.0714607,2.94863755,11.2081289Q2.83608735,11.3447962,2.83608735,11.5698967Q2.83608735,11.7789192,2.94863755,11.9236269Q3.0611879,12.0683346,3.2380525000000002,12.0683346L4.845913400000001,12.0683346ZM4.845913400000001,10.090666299999999Q5.022778300000001,10.090666299999999,5.1272888000000005,9.9459586Q5.2317996,9.8012509,5.2317998,9.5761504Q5.2318001,9.3510499,5.1272888000000005,9.2063422Q5.0227775999999995,9.061634999999999,4.8459132,9.061634999999999L3.2380525000000002,9.061634999999999Q3.0611879,9.061634999999999,2.94863755,9.2063422Q2.83608735,9.3510499,2.83608735,9.5761504Q2.83608735,9.8012509,2.94863755,9.9459586Q3.0611879,10.090666299999999,3.2380525000000002,10.090666299999999L4.845913400000001,10.090666299999999Z" fill="url(#master_svg1_15_2513)" fill-opacity="1"/></g></g></svg>