<svg xmlns="http://www.w3.org/2000/svg" xmlns:xlink="http://www.w3.org/1999/xlink" fill="none" version="1.1" width="20" height="20" viewBox="0 0 20 20"><defs><clipPath id="master_svg0_298_88253"><rect x="0" y="0" width="20" height="20" rx="0"/></clipPath><linearGradient x1="0.03068186528980732" y1="0.29318034648895264" x2="1" y2="1.0000000000000002" id="master_svg1_15_2513"><stop offset="0%" stop-color="#3D77F8" stop-opacity="1"/><stop offset="100%" stop-color="#293AEE" stop-opacity="1"/></linearGradient><linearGradient x1="0.03068186528980732" y1="0.29318034648895264" x2="1.0921100246166993" y2="0.8113030499812739" id="master_svg2_15_2513"><stop offset="0%" stop-color="#3D77F8" stop-opacity="1"/><stop offset="100%" stop-color="#293AEE" stop-opacity="1"/></linearGradient></defs><g clip-path="url(#master_svg0_298_88253)"><g><g><path d="M9.999999500000001,2.5C14.142222,2.5,17.5,5.8577778,17.5,10C17.5,10.9816666,17.311111,11.918889,16.968887000000002,12.777778L16.666666,12.777778L16.583334999999998,12.780556C16.423591000000002,12.792396,16.268335,12.83884,16.128332999999998,12.916667L16.111112,12.926668L16.111112,12.777778C16.111112,12.1641283,15.61365,11.666667,14.999999,11.666667L14.444444,11.666667L14.361111,11.669445C13.781289,11.7130537,13.333148,12.1963196,13.333332,12.777778L13.333332,14.593333L13.31611,14.583333C13.151417,14.491959,12.966119,14.444153,12.777778,14.444445L12.2222214,14.444445C11.608572,14.444443,11.1111097,14.941905,11.1111107,15.555556L11.1111107,16.666667C11.1111107,16.936111,11.207222,17.183334000000002,11.3666668,17.375556C10.9238882,17.457222,10.466666700000001,17.5,10,17.5C5.8577778,17.5,2.5,14.142222,2.5,10C2.5,5.8577774,5.8577771,2.5,9.999999500000001,2.5ZM13.611111,5.8L13.316667,6.0944443L10.7444448,8.6655555C9.8239603,8.151786300000001,8.6720362,8.702573300000001,8.4940104,9.74159C8.3159852,10.7806063,9.218841099999999,11.6834612,10.2578578,11.505434C11.296874,11.3274069,11.8476591,10.175482299999999,11.333889,9.255000599999999L14.200557,6.388889300000001L13.611111,5.8ZM9.999999500000001,9.3055558C10.3837953,9.305181000000001,10.6951218,9.6162043,10.6951218,10C10.6951218,10.383796199999999,10.3837953,10.6948195,9.999999500000001,10.6944447C9.6167336,10.6940699,9.3062334,10.3832664,9.3062334,10C9.3062334,9.6167336,9.6167336,9.3059306,9.999999500000001,9.3055558ZM14.461111,6.9138894L13.860556,7.5150003C14.337234,8.2557755,14.588344,9.1191225,14.583332,10L15.416666,10C15.422256,8.8976312,15.088656,7.8202171,14.461111,6.9138894ZM9.999999500000001,4.5833333C7.0083327,4.5833333,4.5833325,7.0083327,4.5833325,10L5.4166658000000005,10C5.4166658000000005,7.4686952,7.4686942,5.4166667,9.999999500000001,5.4166667C10.8983335,5.4166667,11.7555552,5.677778,12.4816656,6.1433333999999995L13.082777,5.542222300000001C12.176199,4.9173729,11.1010542,4.5829523000000005,9.999999500000001,4.5833333Z" fill="url(#master_svg1_15_2513)" fill-opacity="1"/></g><g><path d="M12.2225486675,15.00000690390625L12.7781043875,15.00000690390625C13.0849288875,15.00000830390625,13.3336593875,15.24873900390625,13.3336593875,15.55556270390625L13.3336593875,16.66667410390625C13.3336593875,16.97349930390625,13.0849288875,17.22223000390625,12.7781036875,17.22223000390625L12.2225479475,17.22223000390625C11.9157234275,17.22223000390625,11.66699295043946,16.97349930390625,11.6669921875,16.66667410390625L11.6669921875,15.55556270390625C11.66699295043946,15.24873730390625,11.9157234275,15.00000690390625,12.2225486675,15.00000690390625ZM14.4447707875,12.22222900390625L15.0003265875,12.22222900390625C15.3071517875,12.22222824096679,15.5558821875,12.47095947390625,15.5558821875,12.77778476390625L15.5558821875,16.66667410390625C15.5558821875,16.97349930390625,15.3071517875,17.22223000390625,15.0003265875,17.22223000390625L14.4447707875,17.22223000390625C14.1379456875,17.22223000390625,13.8892151875,16.97349930390625,13.8892151875,16.66667410390625L13.8892151875,12.77778548390625C13.8892151875,12.47096024390625,14.1379456875,12.22222976684571,14.4447707875,12.22222900390625ZM16.6669921875,13.33333970390625L17.2225479875,13.33333970390625C17.5293731875,13.33333970390625,17.7781037875,13.58207020390625,17.7781037875,13.88889540390625L17.7781037875,16.66667270390625C17.7781037875,16.97349790390625,17.5293731875,17.22222850390625,17.2225479875,17.22222850390625L16.6669921875,17.22222850390625C16.3601669875,17.22222850390625,16.1114363875,16.97349790390625,16.1114363875,16.66667270390625L16.1114363875,13.88889540390625C16.1114363875,13.58207020390625,16.3601669875,13.33333970390625,16.6669921875,13.33333970390625Z" fill="url(#master_svg2_15_2513)" fill-opacity="1"/></g></g></g></svg>